<svg xmlns="http://www.w3.org/2000/svg" viewBox="0 0 1200 900" role="img" aria-labelledby="t d"><title id="t">Marine workshop</title><desc id="d">Stylised marine engine workshop scene.</desc><defs><linearGradient id="bg" x1="0" y1="0" x2="1" y2="1"><stop stop-color="#183f47"/><stop offset="1" stop-color="#071f27"/></linearGradient></defs><rect width="1200" height="900" fill="url(#bg)"/><rect x="80" y="120" width="1040" height="650" rx="22" fill="#d9e4df"/><path d="M80 120h1040v130H80Z" fill="#b8c8c5"/><g fill="#173b43"><rect x="140" y="165" width="250" height="35" rx="5"/><rect x="440" y="165" width="150" height="35" rx="5"/></g><g transform="translate(170 285)"><rect width="300" height="350" rx="22" fill="#0a3842"/><rect x="54" y="52" width="190" height="120" rx="14" fill="#164f59"/><circle cx="150" cy="245" r="74" fill="#efbc45"/><circle cx="150" cy="245" r="32" fill="#0a3842"/><rect x="80" y="310" width="140" height="25" rx="5" fill="#dce7e4"/></g><g transform="translate(570 300)"><rect width="410" height="270" rx="18" fill="#ffffff"/><path d="M40 205h330" stroke="#b2c2bf" stroke-width="8"/><path d="M62 180 145 95l85 45 100-90" fill="none" stroke="#0f6872" stroke-width="16" stroke-linecap="round" stroke-linejoin="round"/><circle cx="62" cy="180" r="13" fill="#efbc45"/><circle cx="145" cy="95" r="13" fill="#efbc45"/><circle cx="230" cy="140" r="13" fill="#efbc45"/><circle cx="330" cy="50" r="13" fill="#efbc45"/></g><rect x="610" y="620" width="320" height="72" rx="12" fill="#0b4d57"/><rect x="650" y="642" width="155" height="18" rx="9" fill="#83cdd0"/><circle cx="880" cy="656" r="18" fill="#efbc45"/></svg>
